<svg xmlns="http://www.w3.org/2000/svg" version="1.1" xmlns:xlink="http://www.w3.org/1999/xlink" width="512" height="512" x="0" y="0" viewBox="0 0 682.667 682.667" style="enable-background:new 0 0 512 512" xml:space="preserve" class=""><g><defs><clipPath id="a" clipPathUnits="userSpaceOnUse"><path d="M0 512h512V0H0Z" fill="#000000" opacity="1" data-original="#000000"></path></clipPath></defs><g clip-path="url(#a)" transform="matrix(1.33333 0 0 -1.33333 0 682.667)"><path d="M0 0h-45.173l-44.6 62.143c14.572 40.368 39.896 55.292 39.896 55.292H57.178Z" style="fill-opacity:1;fill-rule:nonzero;stroke:none" transform="translate(218.34 7.5)" fill="#fd8b9b" data-original="#fd8b9b" class=""></path><path d="m0 0 25.009 51.365H-82.046s-10.721-6.327-22.225-21.86C-73.769 11.149-37.913.903 0 0" style="fill-opacity:1;fill-rule:nonzero;stroke:none" transform="translate(250.509 73.57)" fill="#e75b70" data-original="#e75b70"></path><path d="m0 0-44.601-62.143h-120.493v25.295a84.418 84.418 0 0 0 24.722 59.685l32.456 32.455h68.02S-14.572 40.368 0 0" style="fill-opacity:1;fill-rule:nonzero;stroke:none" transform="translate(383.434 69.643)" fill="#e75b70" data-original="#e75b70"></path><path d="M0 0v-50.699h-54.641c0 25.335 4.143 45.815 10.04 62.143z" style="fill-opacity:1;fill-rule:nonzero;stroke:none" transform="translate(173.167 58.199)" fill="#fed2a4" data-original="#fed2a4" class=""></path><path d="M0 0h-54.641v50.699l44.601 11.444C-4.143 45.814 0 25.334 0 0" style="fill-opacity:1;fill-rule:nonzero;stroke:none" transform="translate(393.474 7.5)" fill="#fed2a4" data-original="#fed2a4" class=""></path><path d="M0 0c-42.312 0-76.612 34.301-76.612 76.612 0 42.312 34.3 76.613 76.612 76.613 32.396 0 60.096-20.108 71.3-48.525z" style="fill-opacity:1;fill-rule:nonzero;stroke:none" transform="translate(112.901 351.275)" fill="#303646" data-original="#303646"></path><path d="M0 0c0-20.277-16.437-36.714-36.714-36.714-20.277 0-36.715 16.437-36.715 36.714 0 20.277 16.438 36.714 36.715 36.714C-16.437 36.714 0 20.277 0 0" style="fill-opacity:1;fill-rule:nonzero;stroke:none" transform="translate(205.18 455.976)" fill="#fd8b9b" data-original="#fd8b9b" class=""></path><path d="M0 0c0-42.312 34.301-76.612 76.612-76.612 42.312 0 76.613 34.3 76.613 76.612s-34.301 76.612-76.613 76.612C34.301 76.612 0 42.312 0 0" style="fill-opacity:1;fill-rule:nonzero;stroke:none" transform="translate(322.486 427.888)" fill="#303646" data-original="#303646"></path><path d="M0 0c0-20.277 16.437-36.714 36.714-36.714 20.277 0 36.715 16.437 36.715 36.714 0 20.277-16.438 36.714-36.715 36.714C16.437 36.714 0 20.277 0 0" style="fill-opacity:1;fill-rule:nonzero;stroke:none" transform="translate(306.82 455.976)" fill="#fd8b9b" data-original="#fd8b9b" class=""></path><path d="M0 0c0 7.1 1.708 13.797 4.72 19.72-14.322-5.007-24.598-18.629-24.598-34.658 0-20.277 16.438-36.714 36.715-36.714a36.555 36.555 0 0 1 23.152 8.225C17.602-41.596 0-22.86 0 0" style="fill-opacity:1;fill-rule:nonzero;stroke:none" transform="translate(151.629 470.914)" fill="#e75b70" data-original="#e75b70"></path><path d="M0 0c0 14.912 8.208 27.9 20.348 34.715a36.66 36.66 0 0 1-11.741 1.929c-20.276 0-36.713-16.438-36.713-36.715 0-20.277 16.437-36.714 36.713-36.714 4.165 0 8.164.703 11.896 1.981C8.277-28.014 0-14.976 0 0" style="fill-opacity:1;fill-rule:nonzero;stroke:none" transform="translate(334.927 456.047)" fill="#e75b70" data-original="#e75b70"></path><path d="M0 0c0 115.663 94.099 209.762 209.762 209.762 115.664 0 209.761-94.099 209.761-209.762Z" style="fill-opacity:1;fill-rule:nonzero;stroke:none" transform="translate(46.238 262.744)" fill="#475066" data-original="#475066"></path><path d="M0 0c0-25.431-20.616-46.047-46.047-46.047-25.432 0-46.047 20.616-46.047 46.047 0 25.431 20.615 46.047 46.047 46.047C-20.616 46.047 0 25.431 0 0" style="fill-opacity:1;fill-rule:nonzero;stroke:none" transform="translate(473.92 262.744)" fill="#ffbd86" data-original="#ffbd86" class=""></path><path d="M0 0c0 67.032 30.08 127.029 77.468 167.261C-12.806 143.849-79.663 61.68-79.663-35.813h82.59A220.744 220.744 0 0 0 0 0" style="fill-opacity:1;fill-rule:nonzero;stroke:none" transform="translate(125.901 298.557)" fill="#303646" data-original="#303646"></path><path d="M0 0h-68.02l-32.456-32.456a84.362 84.362 0 0 1-13.37-17.449 227.214 227.214 0 0 1 26.309-1.53c39.938 0 77.791 10.335 109.763 29.575C10.721-6.327 0 0 0 0" style="fill-opacity:1;fill-rule:nonzero;stroke:none" transform="translate(343.537 124.935)" fill="#c74156" data-original="#c74156"></path><path d="M0 0c-7.197 20.804-26.842 34.724-48.856 34.724h-60.177a37.181 37.181 0 0 0-26.292 10.89l-11.797 11.797c-7.378 7.379-19.341 7.379-26.719 0l-11.797-11.797a37.181 37.181 0 0 0-26.292-10.89h-60.176c-22.015 0-41.66-13.92-48.857-34.724-6.017-17.391-9.287-36.063-9.287-55.501 0-93.761 76.008-159.244 169.769-159.244 93.76 0 169.768 65.483 169.768 159.244C9.287-36.063 6.018-17.391 0 0" style="fill-opacity:1;fill-rule:nonzero;stroke:none" transform="translate(416.481 318.245)" fill="#fed2a4" data-original="#fed2a4" class=""></path><path d="M0 0c-70.271 36.55-118.269 110.014-118.269 194.697 0 18.278 2.25 36.028 6.463 53.002-16.901-4.026-30.991-16.392-36.845-33.314a168.678 168.678 0 0 1-3.175-10.225 44.038 44.038 0 0 1-8.218.771c-25.431 0-46.047-20.616-46.047-46.047 0-25.431 20.616-46.047 46.047-46.047 2.936 0 5.748.287 8.437.812C-132.561 48.258-72.554 4.322 0 0" style="fill-opacity:1;fill-rule:nonzero;stroke:none" transform="translate(244.17 103.86)" fill="#ffbd86" data-original="#ffbd86" class=""></path><path d="M0 0c0-16.296-16.589-29.507-37.052-29.507S-74.104-16.296-74.104 0s16.589 29.506 37.052 29.506S0 16.296 0 0" style="fill-opacity:1;fill-rule:nonzero;stroke:none" transform="translate(192.635 238.76)" fill="#fd8b9b" data-original="#fd8b9b" class=""></path><path d="M0 0c0-16.296 16.589-29.507 37.052-29.507S74.104-16.296 74.104 0 57.515 29.506 37.052 29.506 0 16.296 0 0" style="fill-opacity:1;fill-rule:nonzero;stroke:none" transform="translate(319.365 238.76)" fill="#fd8b9b" data-original="#fd8b9b" class=""></path><path d="m0 0 65.848 72.726-10.307 5.35-59.629-48.363Z" style="fill-opacity:1;fill-rule:nonzero;stroke:none" transform="translate(71.884 363.173)" fill="#303646" data-original="#303646"></path><path d="M0 0c0 9.74-7.896 17.636-17.636 17.636-9.74 0-17.635-7.896-17.635-17.636" style="stroke-width:15;stroke-linecap:round;stroke-linejoin:round;stroke-miterlimit:10;stroke-dasharray:none;stroke-opacity:1" transform="translate(194.813 270.869)" fill="none" stroke="#000000" stroke-width="15" stroke-linecap="round" stroke-linejoin="round" stroke-miterlimit="10" stroke-dasharray="none" stroke-opacity="" data-original="#000000" class=""></path><path d="M0 0c0 9.74 7.896 17.636 17.636 17.636 9.74 0 17.635-7.896 17.635-17.636" style="stroke-width:15;stroke-linecap:round;stroke-linejoin:round;stroke-miterlimit:10;stroke-dasharray:none;stroke-opacity:1" transform="translate(317.188 270.869)" fill="none" stroke="#000000" stroke-width="15" stroke-linecap="round" stroke-linejoin="round" stroke-miterlimit="10" stroke-dasharray="none" stroke-opacity="" data-original="#000000" class=""></path><path d="M0 0c4.548-5.219 11.239-8.522 18.707-8.522 7.467 0 14.158 3.303 18.707 8.522" style="stroke-width:15;stroke-linecap:round;stroke-linejoin:round;stroke-miterlimit:10;stroke-dasharray:none;stroke-opacity:1" transform="translate(237.293 250.256)" fill="none" stroke="#000000" stroke-width="15" stroke-linecap="round" stroke-linejoin="round" stroke-miterlimit="10" stroke-dasharray="none" stroke-opacity="" data-original="#000000" class=""></path><path d="M0 0a76.574 76.574 0 0 1-3.574-23.167c0-27.228 14.216-51.12 35.617-64.708a211.356 211.356 0 0 0 65.829 72.714 36.538 36.538 0 0 0-5.984 20.082c0 16.152 10.434 29.858 24.927 34.77-12.412 8.66-27.496 13.754-43.777 13.754-23.052 0-43.709-10.195-57.754-26.304" style="stroke-width:15;stroke-linecap:round;stroke-linejoin:round;stroke-miterlimit:10;stroke-dasharray:none;stroke-opacity:1" transform="translate(39.863 451.055)" fill="none" stroke="#000000" stroke-width="15" stroke-linecap="round" stroke-linejoin="round" stroke-miterlimit="10" stroke-dasharray="none" stroke-opacity="" data-original="#000000" class=""></path><path d="M0 0c0-7.414-2.205-14.31-5.984-20.082a211.372 211.372 0 0 0 65.829-72.713c21.401 13.587 35.617 37.48 35.617 64.707 0 42.312-34.301 76.612-76.612 76.612-16.283 0-31.367-5.094-43.778-13.754C-10.436 29.858 0 16.152 0 0Z" style="stroke-width:15;stroke-linecap:round;stroke-linejoin:round;stroke-miterlimit:10;stroke-dasharray:none;stroke-opacity:1" transform="translate(380.249 455.976)" fill="none" stroke="#000000" stroke-width="15" stroke-linecap="round" stroke-linejoin="round" stroke-miterlimit="10" stroke-dasharray="none" stroke-opacity="" data-original="#000000" class=""></path><path d="M0 0c-4.341 15.437-18.513 26.759-35.337 26.759-20.277 0-36.715-16.438-36.715-36.715 0-7.414 2.205-14.31 5.985-20.081C-46.219-16.438-23.932-6.151 0 0Z" style="stroke-width:15;stroke-linecap:round;stroke-linejoin:round;stroke-miterlimit:10;stroke-dasharray:none;stroke-opacity:1" transform="translate(203.803 465.931)" fill="none" stroke="#000000" stroke-width="15" stroke-linecap="round" stroke-linejoin="round" stroke-miterlimit="10" stroke-dasharray="none" stroke-opacity="" data-original="#000000" class=""></path><path d="M0 0a36.535 36.535 0 0 1 5.984 20.082c0 20.276-16.437 36.714-36.714 36.714-16.826 0-30.997-11.322-35.337-26.759C-42.136 23.886-19.849 13.599 0 0Z" style="stroke-width:15;stroke-linecap:round;stroke-linejoin:round;stroke-miterlimit:10;stroke-dasharray:none;stroke-opacity:1" transform="translate(374.265 435.894)" fill="none" stroke="#000000" stroke-width="15" stroke-linecap="round" stroke-linejoin="round" stroke-miterlimit="10" stroke-dasharray="none" stroke-opacity="" data-original="#000000" class=""></path><path d="M0 0c2.809 0 5.554-.265 8.224-.747a167.672 167.672 0 0 0 3.168 10.201c7.198 20.804 26.842 34.724 48.857 34.724h60.177a37.185 37.185 0 0 1 26.292 10.89l11.797 11.797c7.378 7.379 19.34 7.379 26.718 0l11.797-11.797a37.183 37.183 0 0 1 26.292-10.89h60.177c22.015 0 41.659-13.92 48.856-34.724a167.672 167.672 0 0 0 3.168-10.201c2.67.482 5.415.747 8.225.747 14.519 0 27.459-6.726 35.898-17.225-14.089 102.074-101.886 180.94-207.772 180.94S-21.809 84.849-35.899-17.224C-27.459-6.726-14.519 0 0 0Z" style="stroke-width:15;stroke-linecap:round;stroke-linejoin:round;stroke-miterlimit:10;stroke-dasharray:none;stroke-opacity:1" transform="translate(84.126 308.791)" fill="none" stroke="#000000" stroke-width="15" stroke-linecap="round" stroke-linejoin="round" stroke-miterlimit="10" stroke-dasharray="none" stroke-opacity="" data-original="#000000" class=""></path><path d="M0 0c0 15.689 2.133 30.879 6.118 45.3a46.23 46.23 0 0 1-8.223.747c-25.431 0-46.047-20.616-46.047-46.047 0-25.431 20.616-46.047 46.047-46.047 2.883 0 5.7.278 8.436.785C2.209-31.117 0-15.97 0 0Z" style="stroke-width:15;stroke-linecap:round;stroke-linejoin:round;stroke-miterlimit:10;stroke-dasharray:none;stroke-opacity:1" transform="translate(86.231 262.744)" fill="none" stroke="#000000" stroke-width="15" stroke-linecap="round" stroke-linejoin="round" stroke-miterlimit="10" stroke-dasharray="none" stroke-opacity="" data-original="#000000" class=""></path><path d="M0 0c-2.81 0-5.555-.265-8.225-.747 3.987-14.42 6.12-29.61 6.12-45.3 0-15.97-2.209-31.117-6.332-45.262A46.346 46.346 0 0 1 0-92.094c25.431 0 46.046 20.616 46.046 46.047C46.046-20.616 25.431 0 0 0Z" style="stroke-width:15;stroke-linecap:round;stroke-linejoin:round;stroke-miterlimit:10;stroke-dasharray:none;stroke-opacity:1" transform="translate(427.874 308.791)" fill="none" stroke="#000000" stroke-width="15" stroke-linecap="round" stroke-linejoin="round" stroke-miterlimit="10" stroke-dasharray="none" stroke-opacity="" data-original="#000000" class=""></path><path d="M0 0c19.313 25.631 30.656 57.615 30.656 93.821 0 19.438-3.269 38.111-9.287 55.501-7.197 20.804-26.842 34.724-48.856 34.724h-60.177a37.183 37.183 0 0 0-26.292 10.89l-11.797 11.797c-7.378 7.379-19.341 7.379-26.719 0l-11.797-11.797a37.181 37.181 0 0 0-26.292-10.89h-60.176c-22.015 0-41.659-13.92-48.858-34.724-6.016-17.39-9.286-36.063-9.286-55.501 0-93.76 76.008-159.244 169.769-159.244 46.243 0 88.159 15.938 118.777 43.332" style="stroke-width:15;stroke-linecap:round;stroke-linejoin:round;stroke-miterlimit:10;stroke-dasharray:none;stroke-opacity:1" transform="translate(395.112 168.923)" fill="none" stroke="#000000" stroke-width="15" stroke-linecap="round" stroke-linejoin="round" stroke-miterlimit="10" stroke-dasharray="none" stroke-opacity="" data-original="#000000" class=""></path><path d="M0 0h-.012s-25.324-14.924-39.897-55.292L4.692-66.736v-50.699h45.172v25.295a84.419 84.419 0 0 0 24.723 59.685l11.042 11.041C54.324-21.118 25.053-13.52 0 0Z" style="stroke-width:15;stroke-linecap:round;stroke-linejoin:round;stroke-miterlimit:10;stroke-dasharray:none;stroke-opacity:1" transform="translate(168.475 124.935)" fill="none" stroke="#000000" stroke-width="15" stroke-linecap="round" stroke-linejoin="round" stroke-miterlimit="10" stroke-dasharray="none" stroke-opacity="" data-original="#000000" class=""></path><path d="M0 0v-50.699h-54.641c0 25.335 4.143 45.815 10.039 62.143z" style="stroke-width:15;stroke-linecap:round;stroke-linejoin:round;stroke-miterlimit:10;stroke-dasharray:none;stroke-opacity:1" transform="translate(173.167 58.199)" fill="none" stroke="#000000" stroke-width="15" stroke-linecap="round" stroke-linejoin="round" stroke-miterlimit="10" stroke-dasharray="none" stroke-opacity="" data-original="#000000" class=""></path><path d="M0 0v0c-14.572 40.368-39.896 55.292-39.896 55.292h-.012C-65.467 41.5-95.414 33.857-127.434 33.857c-.633 0-1.264.015-1.896.021l-11.042-11.041a84.419 84.419 0 0 1-24.723-59.685v-25.295h120.494v50.699z" style="stroke-width:15;stroke-linecap:round;stroke-linejoin:round;stroke-miterlimit:10;stroke-dasharray:none;stroke-opacity:1" transform="translate(383.434 69.643)" fill="none" stroke="#000000" stroke-width="15" stroke-linecap="round" stroke-linejoin="round" stroke-miterlimit="10" stroke-dasharray="none" stroke-opacity="" data-original="#000000" class=""></path><path d="M0 0h-54.641v50.699l44.601 11.444C-4.143 45.814 0 25.334 0 0Z" style="stroke-width:15;stroke-linecap:round;stroke-linejoin:round;stroke-miterlimit:10;stroke-dasharray:none;stroke-opacity:1" transform="translate(393.474 7.5)" fill="none" stroke="#000000" stroke-width="15" stroke-linecap="round" stroke-linejoin="round" stroke-miterlimit="10" stroke-dasharray="none" stroke-opacity="" data-original="#000000" class=""></path></g></g></svg>